<?xml version="1.0" encoding="UTF-8"?>
<svg id="Layer_1" data-name="Layer 1" xmlns="http://www.w3.org/2000/svg" viewBox="0 0 898 980">
  <defs>
    <style>
      .cls-1 {
        fill: #fff;
      }
    </style>
  </defs>
  <path class="cls-1" d="M133.74,979.52c-18.88-6.26-32.25-19.4-32.58-40.29,3.28-32.67,6.65-65.37,10.73-97.94,2.78-22.18,4.78-55,10.32-75.59,3.08-11.43,12.76-21.07,23.53-25.41,22.03-8.88,52.22-15.57,75.66-22.21s48.87-14.54,72.91-19.98c21.17-4.78,38.62-9.97,54.65,8.69,19.82,23.06,7.85,55.64-19.23,65.71-23.07,8.57-50.29,13.43-74.15,20.72-1.06.32-7.75,1.45-5.99,3.47,87.2,55.27,194.68,72.88,295.02,45.89,171.71-46.19,286.51-209.79,269.21-388.02-2.11-21.72-9.16-44.3-10.85-65.07-2.53-31.19,26.84-54.27,56.31-41.34,19.55,8.58,24.03,27.75,28.14,46.77,28.74,132.94-6.27,275.27-92.59,379.28-137.79,166.02-370.17,210.21-560.9,107.59-11.73-6.31-23.6-15.18-34.96-20.97-1.05-.53-5.81-2.69-6.31-2.18-3.97,23.26-5.47,46.97-9.16,70.27-2.81,17.74-4.29,34.67-21.11,44.82l-14.68,5.8h-13.98Z"/>
  <path class="cls-1" d="M.91,476.04C16.29,136.06,375.48-62.26,673.69,103.25c3.62,2.01,30.83,19.45,32.28,18.15,3.76-20.59,5.11-41.59,8.14-62.29,2.73-18.69,2.54-36.19,17.82-49.11,26.26-22.21,64.38-2.85,65.96,29.94-4.41,38.59-8.13,77.29-13.15,115.8-2.17,16.65-3.97,45.27-8.81,60.12-7.27,22.31-32.35,26.87-51.99,32.91-42.3,13.01-93.72,28.85-136.8,36.98-47.79,9.02-66.34-57.45-23.24-76.19,24.33-10.59,57.02-15.66,82.94-23.95,1.32-.42,2.65.39,2.2-1.75-99.7-64.71-228.14-76.87-338.51-31.95-148.77,60.56-242.27,214.73-225.72,375.58,2.11,20.55,12.76,55.11,10.97,72.92-3.81,37.76-55.46,47.25-74.09,16.19-14.25-23.76-19.67-92.07-20.78-120.57-.25-6.34-.29-13.65,0-19.98Z"/>
</svg>